<mxfile host="app.diagrams.net" modified="2024-03-28T20:36:01.330Z" agent="Mozilla/5.0 (X11; Linux x86_64; rv:91.0) Gecko/20100101 Firefox/91.0" etag="lozuwUgMYuXFYrJJfSZn" version="24.2.1" type="device">
  <diagram name="Page-1" id="lkK595sqKV84RmTj4WEt">
    <mxGraphModel dx="1185" dy="663" grid="1" gridSize="10" guides="1" tooltips="1" connect="1" arrows="1" fold="1" page="1" pageScale="1" pageWidth="850" pageHeight="1100" math="0" shadow="0">
      <root>
        <mxCell id="0" />
        <mxCell id="1" parent="0" />
        <mxCell id="0D7rvQOAySLpxr-piLWg-1" value="" style="rounded=0;whiteSpace=wrap;html=1;fillColor=none;" vertex="1" parent="1">
          <mxGeometry x="160" y="170" width="430" height="310" as="geometry" />
        </mxCell>
        <mxCell id="0D7rvQOAySLpxr-piLWg-11" value="" style="rounded=0;whiteSpace=wrap;html=1;fillColor=none;" vertex="1" parent="1">
          <mxGeometry x="610" y="170" width="200" height="310" as="geometry" />
        </mxCell>
        <mxCell id="0D7rvQOAySLpxr-piLWg-10" value="" style="rounded=0;whiteSpace=wrap;html=1;fillColor=none;" vertex="1" parent="1">
          <mxGeometry x="270" y="220" width="300" height="230" as="geometry" />
        </mxCell>
        <mxCell id="0D7rvQOAySLpxr-piLWg-2" value="Данные&lt;br&gt;гипервизора" style="ellipse;whiteSpace=wrap;html=1;aspect=fixed;" vertex="1" parent="1">
          <mxGeometry x="170" y="330" width="90" height="90" as="geometry" />
        </mxCell>
        <mxCell id="0D7rvQOAySLpxr-piLWg-5" value="Страницы стека" style="rounded=0;whiteSpace=wrap;html=1;" vertex="1" parent="1">
          <mxGeometry x="290" y="395" width="170" height="30" as="geometry" />
        </mxCell>
        <mxCell id="0D7rvQOAySLpxr-piLWg-7" value="Код рабочего окружения" style="rounded=0;whiteSpace=wrap;html=1;" vertex="1" parent="1">
          <mxGeometry x="290" y="280" width="170" height="40" as="geometry" />
        </mxCell>
        <mxCell id="0D7rvQOAySLpxr-piLWg-8" value="Данные ДСИ" style="ellipse;whiteSpace=wrap;html=1;aspect=fixed;" vertex="1" parent="1">
          <mxGeometry x="550" y="390" width="80" height="80" as="geometry" />
        </mxCell>
        <mxCell id="0D7rvQOAySLpxr-piLWg-9" value="Модуль отображения памяти" style="rounded=0;whiteSpace=wrap;html=1;" vertex="1" parent="1">
          <mxGeometry x="645" y="277.5" width="135" height="45" as="geometry" />
        </mxCell>
        <mxCell id="0D7rvQOAySLpxr-piLWg-12" value="&lt;b&gt;Безопасный мир&lt;/b&gt;" style="text;html=1;align=center;verticalAlign=middle;whiteSpace=wrap;rounded=0;" vertex="1" parent="1">
          <mxGeometry x="657.5" y="180" width="110" height="30" as="geometry" />
        </mxCell>
        <mxCell id="0D7rvQOAySLpxr-piLWg-13" value="&lt;b&gt;Обычный мир&lt;/b&gt;" style="text;html=1;align=center;verticalAlign=middle;whiteSpace=wrap;rounded=0;" vertex="1" parent="1">
          <mxGeometry x="320" y="180" width="110" height="30" as="geometry" />
        </mxCell>
        <mxCell id="0D7rvQOAySLpxr-piLWg-14" value="Рабочее окружение" style="text;html=1;align=center;verticalAlign=middle;whiteSpace=wrap;rounded=0;" vertex="1" parent="1">
          <mxGeometry x="350" y="230" width="110" height="30" as="geometry" />
        </mxCell>
        <mxCell id="0D7rvQOAySLpxr-piLWg-15" value="" style="endArrow=classic;html=1;rounded=0;exitX=0.5;exitY=1;exitDx=0;exitDy=0;entryX=1;entryY=0.5;entryDx=0;entryDy=0;" edge="1" parent="1" source="0D7rvQOAySLpxr-piLWg-9" target="0D7rvQOAySLpxr-piLWg-8">
          <mxGeometry width="50" height="50" relative="1" as="geometry">
            <mxPoint x="400" y="490" as="sourcePoint" />
            <mxPoint x="450" y="440" as="targetPoint" />
          </mxGeometry>
        </mxCell>
        <mxCell id="0D7rvQOAySLpxr-piLWg-16" value="" style="endArrow=classic;html=1;rounded=0;exitX=0;exitY=0.5;exitDx=0;exitDy=0;entryX=0.5;entryY=1;entryDx=0;entryDy=0;" edge="1" parent="1" source="0D7rvQOAySLpxr-piLWg-8" target="0D7rvQOAySLpxr-piLWg-7">
          <mxGeometry width="50" height="50" relative="1" as="geometry">
            <mxPoint x="400" y="490" as="sourcePoint" />
            <mxPoint x="450" y="440" as="targetPoint" />
          </mxGeometry>
        </mxCell>
        <mxCell id="0D7rvQOAySLpxr-piLWg-18" value="Запись" style="text;html=1;align=center;verticalAlign=middle;whiteSpace=wrap;rounded=0;rotation=0;" vertex="1" parent="1">
          <mxGeometry x="690" y="360" width="60" height="30" as="geometry" />
        </mxCell>
        <mxCell id="0D7rvQOAySLpxr-piLWg-19" value="Чтение" style="text;html=1;align=center;verticalAlign=middle;whiteSpace=wrap;rounded=0;rotation=0;" vertex="1" parent="1">
          <mxGeometry x="480" y="360" width="60" height="30" as="geometry" />
        </mxCell>
        <mxCell id="0D7rvQOAySLpxr-piLWg-20" value="" style="endArrow=classic;html=1;rounded=0;exitX=1;exitY=0.5;exitDx=0;exitDy=0;entryX=0;entryY=0.5;entryDx=0;entryDy=0;" edge="1" parent="1" source="0D7rvQOAySLpxr-piLWg-7" target="0D7rvQOAySLpxr-piLWg-9">
          <mxGeometry width="50" height="50" relative="1" as="geometry">
            <mxPoint x="400" y="490" as="sourcePoint" />
            <mxPoint x="450" y="440" as="targetPoint" />
          </mxGeometry>
        </mxCell>
        <mxCell id="0D7rvQOAySLpxr-piLWg-21" value="Запрос на запись" style="text;html=1;align=center;verticalAlign=middle;whiteSpace=wrap;rounded=0;rotation=0;" vertex="1" parent="1">
          <mxGeometry x="400" y="277.5" width="230" height="30" as="geometry" />
        </mxCell>
        <mxCell id="0D7rvQOAySLpxr-piLWg-22" value="" style="endArrow=classic;startArrow=classic;html=1;rounded=0;exitX=0.25;exitY=0;exitDx=0;exitDy=0;entryX=0.25;entryY=1;entryDx=0;entryDy=0;" edge="1" parent="1" source="0D7rvQOAySLpxr-piLWg-5" target="0D7rvQOAySLpxr-piLWg-7">
          <mxGeometry width="50" height="50" relative="1" as="geometry">
            <mxPoint x="530" y="310" as="sourcePoint" />
            <mxPoint x="580" y="260" as="targetPoint" />
          </mxGeometry>
        </mxCell>
        <mxCell id="0D7rvQOAySLpxr-piLWg-23" value="Чтение и запись" style="text;html=1;align=center;verticalAlign=middle;whiteSpace=wrap;rounded=0;rotation=0;" vertex="1" parent="1">
          <mxGeometry x="340" y="350" width="60" height="30" as="geometry" />
        </mxCell>
      </root>
    </mxGraphModel>
  </diagram>
</mxfile>
